<?xml version="1.0" encoding="UTF-8"?>
<svg version="1.1" xmlns="http://www.w3.org/2000/svg" width="1024" height="1024">
<path d="M0 0 C337.92 0 675.84 0 1024 0 C1024 337.92 1024 675.84 1024 1024 C686.08 1024 348.16 1024 0 1024 C0 686.08 0 348.16 0 0 Z " fill="#FEFEFE" transform="translate(0,0)"/>
<path d="M0 0 C0.97461182 0.17523193 1.94922363 0.35046387 2.95336914 0.53100586 C13.70604745 2.50501684 24.49732964 4.51236949 34.71655273 8.47143555 C38.40040671 9.85364659 42.2060794 10.85459299 45.98828125 11.9296875 C51.03158807 13.67398911 55.79215867 15.93383496 60.625 18.1875 C62.41403324 19.00006443 64.20309539 19.8125652 65.9921875 20.625 C92.05895456 32.65924747 115.03922221 48.17091423 135.625 68.1875 C136.26179688 68.79851562 136.89859375 69.40953125 137.5546875 70.0390625 C146.73591792 78.86852164 155.10201667 87.90715819 162.625 98.1875 C163.27009521 99.05737549 163.27009521 99.05737549 163.92822266 99.94482422 C189.6136451 134.64838603 206.31423535 174.44797537 212.625 217.1875 C212.74069336 217.89438965 212.85638672 218.6012793 212.97558594 219.32958984 C216.39594763 240.38460569 216.24883365 264.09366041 212.94140625 285.15234375 C212.59680678 287.36884159 212.2976605 289.5892333 212 291.8125 C209.53780746 309.48341106 204.63843456 326.41813749 198.625 343.1875 C198.39731934 343.82606934 198.16963867 344.46463867 197.93505859 345.12255859 C193.86340771 356.35724432 188.35919513 366.73278827 182.625 377.1875 C182.27679199 377.83106445 181.92858398 378.47462891 181.56982422 379.13769531 C165.21319266 409.30822348 141.56831736 437.15523118 113.625 457.1875 C112.47944913 458.03769038 111.33493929 458.88928501 110.19140625 459.7421875 C56.07462679 499.70767494 -11.76496678 516.26788238 -78.375 507.1875 C-85.11115472 506.15731002 -91.74570345 504.75681366 -98.375 503.1875 C-99.31408203 502.96545898 -100.25316406 502.74341797 -101.22070312 502.51464844 C-113.59910427 499.53678688 -125.64129486 496.14973516 -137.375 491.1875 C-138.14376465 490.86410645 -138.9125293 490.54071289 -139.70458984 490.20751953 C-162.00036167 480.72794955 -181.77121951 468.693492 -200.9375 453.9375 C-201.67548828 453.3712793 -202.41347656 452.80505859 -203.17382812 452.22167969 C-207.32031094 448.98046819 -211.12735277 445.58920594 -214.77416992 441.79272461 C-216.47812249 440.08409443 -218.27067346 438.54292635 -220.125 437 C-233.08139829 425.76612865 -243.95532387 411.44041607 -253.375 397.1875 C-253.72852539 396.65560059 -254.08205078 396.12370117 -254.44628906 395.57568359 C-292.49388677 337.89320981 -305.79919238 268.13800432 -292.40576172 200.36425781 C-290.60810087 191.74333005 -288.21184792 183.51837673 -285.375 175.1875 C-284.76740121 173.0634788 -284.16315309 170.93849582 -283.5625 168.8125 C-280.93638669 160.2802684 -277.16680686 152.25191413 -273.375 144.1875 C-273.05515137 143.50252441 -272.73530273 142.81754883 -272.40576172 142.11181641 C-261.9466325 119.89634371 -248.25705862 99.05068027 -231.375 81.1875 C-230.16072343 79.79683378 -228.95214048 78.40117037 -227.75 77 C-222.09814729 70.52960311 -215.95312928 64.70599442 -209.375 59.1875 C-208.88596191 58.7740332 -208.39692383 58.36056641 -207.89306641 57.93457031 C-151.13745931 10.24279099 -73.68248072 -13.59433564 0 0 Z " fill="#FDFDFD" transform="translate(553.375,258.8125)"/>
<path d="M0 0 C2.21118164 1.17407227 2.21118164 1.17407227 4.59765625 2.75390625 C5.55945801 3.38570801 6.52125977 4.01750977 7.51220703 4.66845703 C8.67495643 5.44541098 9.83753923 6.22261428 11 7 C12.45006227 7.96122113 13.90044236 8.9219629 15.35107422 9.88232422 C20.3877938 13.22222991 25.41287975 16.5794314 30.4375 19.9375 C32.16464079 21.09060377 33.89185388 22.24359925 35.61914062 23.39648438 C38.94292021 25.61516225 42.26632342 27.83440187 45.58935547 30.05419922 C50.08360122 33.0562033 54.57996542 36.05500995 59.07739258 39.05224609 C61.23239981 40.48843753 63.38718421 41.9249601 65.54174805 43.36181641 C71.15104621 47.10241411 76.76093861 50.84209349 82.37535095 54.57501221 C100.83801628 66.85094325 119.24775502 79.20358922 137.6105957 91.62841797 C145.35280255 96.86418058 153.09597068 102.0932263 160.9296875 107.19140625 C162.06633463 107.93439262 163.20297248 108.67739319 164.33959961 109.42041016 C166.32071604 110.71034506 168.30797792 111.99092133 170.30297852 113.25927734 C174.96121941 116.29627858 178.57060976 118.81685953 181 124 C181.53125 127.65625 181.53125 127.65625 181.5 131.5 C181.51546875 133.40265625 181.51546875 133.40265625 181.53125 135.34375 C180.73578321 140.81843317 178.3505417 143.85954256 174.1875 147.375 C170 149 170 149 155 149 C155 168.47 155 187.94 155 208 C162.59 208 170.18 208 178 208 C179 213 179 213 177.91796875 215 C177.06138672 215.99 177.06138672 215.99 176.1875 217 C175.53652344 217.77988281 174.88554688 218.55976562 174.21484375 219.36328125 C173.11849609 220.66845703 173.11849609 220.66845703 172 222 C170.40734988 224.05616251 168.82451574 226.11763099 167.25 228.1875 C163.33821012 233.28689054 159.38062926 238.34878946 155.40307617 243.39697266 C150.83269271 249.20157618 146.29972069 255.03506532 141.77050781 260.87182617 C140.66678295 262.29322771 139.55880735 263.71134285 138.44580078 265.12548828 C137.2144546 266.72195501 136.05063179 268.37013103 134.90234375 270.02734375 C133 272 133 272 130.6015625 272.7265625 C126.57013921 271.60066951 124.75933352 268.60672046 122.375 265.375 C121.59068604 264.35273315 121.59068604 264.35273315 120.79052734 263.30981445 C119.70661148 261.89647317 118.62868318 260.47852077 117.55664062 259.05615234 C115.71819061 256.62776056 113.83502443 254.2378764 111.94311523 251.85107422 C108.4272912 247.41380344 104.95380616 242.94320489 101.48046875 238.47265625 C100.875979 237.69470703 100.27148926 236.91675781 99.64868164 236.11523438 C98.43439856 234.55108407 97.22132432 232.98599449 96.00952148 231.41992188 C93.50031419 228.18295704 90.98861381 224.95574004 88.3671875 221.80859375 C87.28824219 220.51115234 87.28824219 220.51115234 86.1875 219.1875 C85.58292969 218.47980469 84.97835938 217.77210938 84.35546875 217.04296875 C82.77728511 214.66432309 82.28520505 212.82867304 82 210 C82.33 209.34 82.66 208.68 83 208 C90.59 208 98.18 208 106 208 C106.2770933 197.90598674 106.47605113 187.81843127 106.54146767 177.72078323 C106.57489467 173.03060798 106.64114282 168.34590121 106.78515625 163.65771484 C108.27835927 144.27162536 108.27835927 144.27162536 103.27755737 126.16876221 C99.22797105 122.01155052 94.6880463 119.78392891 89.26712036 117.88031006 C85.56777587 116.44387544 82.52547838 114.16703371 79.3125 111.875 C78.07371743 111.04308502 76.83204147 110.21546109 75.58740234 109.39233398 C73.31570426 107.87798256 71.04538351 106.36163727 68.77587891 104.84399414 C61.3614645 99.88760312 53.92408902 94.9669667 46.47265625 90.06640625 C45.54671158 89.45728394 44.62076691 88.84816162 43.66676331 88.22058105 C39.83912215 85.7029456 36.0112843 83.18561463 32.18188477 80.6706543 C29.34030608 78.80409154 26.50016726 76.93535313 23.66015625 75.06640625 C22.74618073 74.46696198 21.8322052 73.8675177 20.89053345 73.24990845 C16.63268087 70.44641746 12.41350672 67.60920176 8.26904297 64.64013672 C7.5424498 64.12313705 6.81585663 63.60613739 6.06724548 63.07347107 C4.73348445 62.11805854 3.40795886 61.15098842 2.09303284 60.16981506 C-1.7410944 57.42653022 -4.28948087 56.24125057 -9 57 C-11.47925863 58.10841169 -11.47925863 58.10841169 -13.7578125 59.78125 C-14.63179687 60.37679687 -15.50578125 60.97234375 -16.40625 61.5859375 C-17.3034375 62.21757812 -18.200625 62.84921875 -19.125 63.5 C-20.8983622 64.71885956 -22.67180036 65.93760862 -24.4453125 67.15625 C-25.35917725 67.79062988 -26.27304199 68.42500977 -27.21459961 69.07861328 C-31.49568696 72.03173428 -35.83015591 74.90312994 -40.16308594 77.77941895 C-43.02057126 79.67814275 -45.87471145 81.58187114 -48.72850037 83.48614502 C-50.39306749 84.59553432 -52.05900125 85.70287547 -53.72621155 86.80828857 C-58.26459756 89.82118172 -62.77328463 92.86860939 -67.24584961 95.97851562 C-75.94077023 101.97512966 -84.23315802 107.38741678 -94.0546875 111.3359375 C-108.02555533 117.27809224 -108.02555533 117.27809224 -117 129 C-122.21628727 150.69745596 -119.66638655 174.97275918 -118 197 C-120.70484965 194.33202821 -123.36307352 191.69304735 -125.75390625 188.73828125 C-126.21603516 188.17689453 -126.67816406 187.61550781 -127.15429688 187.03710938 C-128.10040666 185.87842014 -129.04307074 184.71690958 -129.98242188 183.55273438 C-133.19620786 179.66472755 -135.3517042 177.33157525 -140.40234375 176.69921875 C-141.23894531 176.69535156 -142.07554687 176.69148437 -142.9375 176.6875 C-144.18853516 176.66236328 -144.18853516 176.66236328 -145.46484375 176.63671875 C-151.10898063 177.44550878 -153.92392795 180.83523504 -157.203125 185.14257812 C-157.67234375 185.77615234 -158.1415625 186.40972656 -158.625 187.0625 C-159.57138171 188.32732636 -160.52176049 189.58917416 -161.4765625 190.84765625 C-161.88986816 191.40461182 -162.30317383 191.96156738 -162.72900391 192.53540039 C-164 194 -164 194 -167 196 C-167 180.49 -167 164.98 -167 149 C-172.28 149 -177.56 149 -183 149 C-188.12670007 145.92397996 -191.10307032 143.69078905 -193 138 C-193.96628352 124.08180077 -193.96628352 124.08180077 -190 119 C-187.51310634 116.72034748 -184.80008633 114.87524807 -182 113 C-180.55947266 112.02546875 -180.55947266 112.02546875 -179.08984375 111.03125 C-176.67865448 109.40945097 -174.25741434 107.80360777 -171.83203125 106.203125 C-168.54429423 104.03096009 -165.27021017 101.83932064 -162.00257874 99.63702393 C-159.57312596 97.99999806 -157.14118597 96.36668599 -154.70913696 94.73352051 C-153.49208412 93.9150104 -152.27606879 93.09495535 -151.06112671 92.27331543 C-149.33269793 91.10493868 -147.60038214 89.94254115 -145.8671875 88.78125 C-144.85769043 88.10126953 -143.84819336 87.42128906 -142.80810547 86.72070312 C-140.24795035 85.1519348 -137.81993461 84.00947076 -135 83 C-135.00222061 82.40087296 -135.00444122 81.80174591 -135.00672913 81.1844635 C-135.02878165 74.97202142 -135.04390646 68.75959038 -135.05493164 62.54711914 C-135.05997333 60.22582549 -135.06680651 57.90453503 -135.07543945 55.58325195 C-135.08751225 52.25471205 -135.09322979 48.92621398 -135.09765625 45.59765625 C-135.10281754 44.55287613 -135.10797882 43.50809601 -135.11329651 42.43165588 C-135.11337204 41.47073532 -135.11344757 40.50981476 -135.11352539 39.51977539 C-135.115746 38.66928116 -135.11796661 37.81878693 -135.12025452 36.94252014 C-135 35 -135 35 -134 34 C-131.1156618 33.91134792 -128.25537842 33.88478704 -125.37109375 33.90234375 C-124.07474754 33.90446617 -124.07474754 33.90446617 -122.75221252 33.90663147 C-119.98060708 33.91224761 -117.2090812 33.92480281 -114.4375 33.9375 C-112.5631522 33.94251292 -110.68880315 33.94707619 -108.81445312 33.95117188 C-104.20957979 33.96137319 -99.6048794 33.98094533 -95 34 C-95 40.93 -95 47.86 -95 55 C-86.51947323 49.36246887 -78.05814357 43.69848426 -69.62109375 37.99609375 C-68.71316071 37.38263092 -67.80522766 36.76916809 -66.86978149 36.13711548 C-63.11378361 33.59897258 -59.35803349 31.06046808 -55.60375977 28.51977539 C-44.8135226 21.21887658 -33.99492984 13.98931804 -23 7 C-20.93635286 5.66844283 -18.87368112 4.33537126 -16.8125 3 C-11.07488846 -0.71611422 -6.74984944 -1.78796647 0 0 Z " fill="#2C549B" transform="translate(518,307)"/>
<path d="M0 0 C0.97461182 0.17523193 1.94922363 0.35046387 2.95336914 0.53100586 C13.70604745 2.50501684 24.49732964 4.51236949 34.71655273 8.47143555 C38.40040671 9.85364659 42.2060794 10.85459299 45.98828125 11.9296875 C51.03158807 13.67398911 55.79215867 15.93383496 60.625 18.1875 C62.41403324 19.00006443 64.20309539 19.8125652 65.9921875 20.625 C92.05895456 32.65924747 115.03922221 48.17091423 135.625 68.1875 C136.26179688 68.79851562 136.89859375 69.40953125 137.5546875 70.0390625 C146.73591792 78.86852164 155.10201667 87.90715819 162.625 98.1875 C163.27009521 99.05737549 163.27009521 99.05737549 163.92822266 99.94482422 C189.6136451 134.64838603 206.31423535 174.44797537 212.625 217.1875 C212.74069336 217.89438965 212.85638672 218.6012793 212.97558594 219.32958984 C216.39594763 240.38460569 216.24883365 264.09366041 212.94140625 285.15234375 C212.59680678 287.36884159 212.2976605 289.5892333 212 291.8125 C209.53780746 309.48341106 204.63843456 326.41813749 198.625 343.1875 C198.39731934 343.82606934 198.16963867 344.46463867 197.93505859 345.12255859 C193.86340771 356.35724432 188.35919513 366.73278827 182.625 377.1875 C182.27679199 377.83106445 181.92858398 378.47462891 181.56982422 379.13769531 C165.21319266 409.30822348 141.56831736 437.15523118 113.625 457.1875 C112.47944913 458.03769038 111.33493929 458.88928501 110.19140625 459.7421875 C56.07462679 499.70767494 -11.76496678 516.26788238 -78.375 507.1875 C-85.11115472 506.15731002 -91.74570345 504.75681366 -98.375 503.1875 C-99.31408203 502.96545898 -100.25316406 502.74341797 -101.22070312 502.51464844 C-113.59910427 499.53678688 -125.64129486 496.14973516 -137.375 491.1875 C-138.14376465 490.86410645 -138.9125293 490.54071289 -139.70458984 490.20751953 C-162.00036167 480.72794955 -181.77121951 468.693492 -200.9375 453.9375 C-201.67548828 453.3712793 -202.41347656 452.80505859 -203.17382812 452.22167969 C-207.32031094 448.98046819 -211.12735277 445.58920594 -214.77416992 441.79272461 C-216.47812249 440.08409443 -218.27067346 438.54292635 -220.125 437 C-233.08139829 425.76612865 -243.95532387 411.44041607 -253.375 397.1875 C-253.72852539 396.65560059 -254.08205078 396.12370117 -254.44628906 395.57568359 C-292.49388677 337.89320981 -305.79919238 268.13800432 -292.40576172 200.36425781 C-290.60810087 191.74333005 -288.21184792 183.51837673 -285.375 175.1875 C-284.76740121 173.0634788 -284.16315309 170.93849582 -283.5625 168.8125 C-280.93638669 160.2802684 -277.16680686 152.25191413 -273.375 144.1875 C-273.05515137 143.50252441 -272.73530273 142.81754883 -272.40576172 142.11181641 C-261.9466325 119.89634371 -248.25705862 99.05068027 -231.375 81.1875 C-230.16072343 79.79683378 -228.95214048 78.40117037 -227.75 77 C-222.09814729 70.52960311 -215.95312928 64.70599442 -209.375 59.1875 C-208.88596191 58.7740332 -208.39692383 58.36056641 -207.89306641 57.93457031 C-151.13745931 10.24279099 -73.68248072 -13.59433564 0 0 Z M-63.375 7.1875 C-64.77752448 7.35411072 -66.1849549 7.48138121 -67.59375 7.58203125 C-91.29662017 9.44451332 -113.38259456 15.11668472 -135.375 24.1875 C-136.40717651 24.60370605 -136.40717651 24.60370605 -137.46020508 25.02832031 C-158.18690277 33.46072911 -177.06531593 45.06860804 -194.375 59.1875 C-195.37402344 59.97640625 -196.37304688 60.7653125 -197.40234375 61.578125 C-232.2638313 89.38728867 -261.10218576 128.51998263 -274.453125 171.34375 C-275.16503015 173.53979641 -275.96515882 175.70736107 -276.80078125 177.859375 C-298.88549207 236.34881447 -289.69583951 303.66908755 -264.82128906 359.41601562 C-257.0879503 376.12002736 -246.85949421 391.82096541 -235.375 406.1875 C-234.69695312 407.05632812 -234.01890625 407.92515625 -233.3203125 408.8203125 C-205.98741452 443.16164585 -168.69071702 470.19105216 -127.375 485.1875 C-126.43011719 485.55101562 -125.48523438 485.91453125 -124.51171875 486.2890625 C-101.2561507 495.10665849 -77.18083621 499.1875 -52.375 499.1875 C-52.375 469.8175 -52.375 440.4475 -52.375 410.1875 C-58.81 408.2075 -58.81 408.2075 -65.375 406.1875 C-78.48868646 399.50429362 -85.9485648 389.6032514 -91.375 376.1875 C-93.17398293 369.91115702 -93.70073001 363.8426783 -93.7890625 357.33984375 C-93.80842865 356.44254044 -93.8277948 355.54523712 -93.8477478 354.6207428 C-93.90694706 351.78892154 -93.95368749 348.95705829 -94 346.125 C-94.03823483 344.19073867 -94.07728966 342.25649337 -94.1171875 340.32226562 C-94.21259857 335.61080911 -94.29684639 330.89927309 -94.375 326.1875 C-95.13425781 326.12691406 -95.89351562 326.06632812 -96.67578125 326.00390625 C-97.66964844 325.92011719 -98.66351563 325.83632813 -99.6875 325.75 C-100.67363281 325.66878906 -101.65976562 325.58757812 -102.67578125 325.50390625 C-105.375 325.1875 -105.375 325.1875 -108.375 324.1875 C-108.42892397 321.41640693 -108.46863455 318.64636182 -108.5 315.875 C-108.51675781 315.08931641 -108.53351563 314.30363281 -108.55078125 313.49414062 C-108.55722656 312.73681641 -108.56367188 311.97949219 -108.5703125 311.19921875 C-108.58602295 310.15447388 -108.58602295 310.15447388 -108.60205078 309.08862305 C-108.375 307.1875 -108.375 307.1875 -106.375 304.1875 C-103.85302734 303.75512695 -103.85302734 303.75512695 -100.7109375 303.67578125 C-99.02871094 303.62260742 -99.02871094 303.62260742 -97.3125 303.56835938 C-96.136875 303.54580078 -94.96125 303.52324219 -93.75 303.5 C-92.56664062 303.46583984 -91.38328125 303.43167969 -90.1640625 303.39648438 C-87.2344694 303.31379425 -84.3051836 303.24471286 -81.375 303.1875 C-81.37135437 302.55745056 -81.36770874 301.92740112 -81.36395264 301.27825928 C-81.32216288 294.72435536 -81.25284201 288.17115405 -81.16748047 281.61767578 C-81.13924365 279.17145818 -81.11804269 276.72514888 -81.10400391 274.27880859 C-81.08261269 270.76351886 -81.03597962 267.24933488 -80.984375 263.734375 C-80.98314636 262.6394574 -80.98191772 261.54453979 -80.98065186 260.41644287 C-80.96093323 259.39568665 -80.9412146 258.37493042 -80.92089844 257.32324219 C-80.91201599 256.42611511 -80.90313354 255.52898804 -80.89398193 254.60467529 C-80.20773581 251.4084616 -78.91193199 250.18858501 -76.375 248.1875 C-73.375 247.875 -73.375 247.875 -70.375 248.1875 C-69.6325 248.249375 -68.89 248.31125 -68.125 248.375 C-66.375 249.1875 -66.375 249.1875 -65.28555298 251.42167664 C-64.37040886 254.20144567 -64.10132254 256.33969605 -64.05615234 259.25317383 C-64.02634781 260.72413261 -64.02634781 260.72413261 -63.99594116 262.22480774 C-63.97861435 263.79382088 -63.97861435 263.79382088 -63.9609375 265.39453125 C-63.93188828 267.01532845 -63.93188828 267.01532845 -63.9022522 268.66886902 C-63.84257897 272.1124996 -63.79611959 275.55616383 -63.75 279 C-63.71180899 281.33790502 -63.6727566 283.67579615 -63.6328125 286.01367188 C-63.53526982 291.73820802 -63.45560252 297.46260002 -63.375 303.1875 C-48.855 303.1875 -34.335 303.1875 -19.375 303.1875 C-19.34921875 299.63613281 -19.3234375 296.08476563 -19.296875 292.42578125 C-19.25845529 288.98372492 -19.21329462 285.54181842 -19.16748047 282.09985352 C-19.13926665 279.70897584 -19.11805421 277.31800481 -19.10400391 274.92700195 C-19.0825809 271.48860875 -19.03593134 268.05133841 -18.984375 264.61328125 C-18.98314636 263.54539871 -18.98191772 262.47751617 -18.98065186 261.37727356 C-18.89175026 256.86578995 -18.82618641 253.97417626 -16.55175781 250.00854492 C-14.375 248.1875 -14.375 248.1875 -10.9375 247.625 C-6.60432791 248.30918507 -5.25054531 248.85986296 -2.375 252.1875 C-1.59952235 256.02531435 -1.65394383 259.82959426 -1.66796875 263.734375 C-1.65284744 264.8607135 -1.63772614 265.987052 -1.62214661 267.14752197 C-1.57916499 270.74438331 -1.570421 274.3404071 -1.5625 277.9375 C-1.53936401 280.37632451 -1.51400057 282.81512899 -1.48632812 285.25390625 C-1.4233723 291.23177868 -1.38852118 297.20932243 -1.375 303.1875 C-0.63338623 303.20208252 0.10822754 303.21666504 0.87231445 303.23168945 C4.22790631 303.30609457 7.58249494 303.40278006 10.9375 303.5 C12.10474609 303.52255859 13.27199219 303.54511719 14.47460938 303.56835938 C15.59287109 303.60380859 16.71113281 303.63925781 17.86328125 303.67578125 C18.89493408 303.70196533 19.92658691 303.72814941 20.98950195 303.75512695 C23.625 304.1875 23.625 304.1875 25.45800781 305.51855469 C27.36641771 308.24782038 27.05907092 310.8570849 27.0625 314.125 C27.09150391 315.96384766 27.09150391 315.96384766 27.12109375 317.83984375 C26.625 321.1875 26.625 321.1875 25.28515625 323.56640625 C21.05372728 326.14503037 16.49617664 326.01952839 11.625 326.1875 C11.61098145 328.10042847 11.61098145 328.10042847 11.59667969 330.05200195 C11.55650426 334.82903692 11.49067113 339.60544638 11.41748047 344.38208008 C11.3894296 346.44091699 11.3681369 348.49985841 11.35400391 350.55883789 C11.19452059 372.48779449 11.19452059 372.48779449 6.625 381.1875 C5.90376953 382.66283203 5.90376953 382.66283203 5.16796875 384.16796875 C-3.688474 398.58840146 -14.16643717 405.55648205 -30.375 410.1875 C-30.375 439.5575 -30.375 468.9275 -30.375 499.1875 C20.76010507 499.1875 71.95687573 479.08820664 111.625 447.1875 C112.16318359 446.76355957 112.70136719 446.33961914 113.25585938 445.90283203 C127.75370457 434.4441314 141.55235288 420.99394673 152.625 406.1875 C153.46335507 405.10141844 154.30190955 404.01549079 155.140625 402.9296875 C183.29948459 365.98200483 199.952974 322.40230694 204.625 276.1875 C204.7192627 275.29957764 204.81352539 274.41165527 204.91064453 273.49682617 C205.92057875 263.39124982 205.78026903 253.33113413 205.625 243.1875 C205.61412354 242.04450439 205.61412354 242.04450439 205.60302734 240.87841797 C205.32211676 220.08627382 201.00243337 198.93864735 194.625 179.1875 C194.40231445 178.49188965 194.17962891 177.7962793 193.95019531 177.07958984 C183.7731945 145.76629326 167.54054074 116.78082385 145.625 92.1875 C144.37439301 90.75052804 143.12431252 89.31309752 141.875 87.875 C141.33230469 87.26140625 140.78960938 86.6478125 140.23046875 86.015625 C139.11549933 84.74602479 138.01486264 83.46375086 136.92578125 82.171875 C132.83310555 77.3526344 128.45884021 73.25084554 123.625 69.1875 C122.25601563 67.98673828 122.25601563 67.98673828 120.859375 66.76171875 C105.70073054 53.52782644 89.36148681 42.66310854 71.625 33.1875 C70.60913818 32.63352539 70.60913818 32.63352539 69.57275391 32.06835938 C34.95675408 13.42828946 -5.9997974 5.90303024 -44.875 5.9375 C-46.00668106 5.93839127 -46.00668106 5.93839127 -47.16122437 5.93930054 C-55.39057564 5.70560946 -55.39057564 5.70560946 -63.375 7.1875 Z " fill="#2EC3D1" transform="translate(553.375,258.8125)"/>
<path d="M0 0 C7.75943772 3.42255453 13.17956174 13.23755254 18.0703125 19.875 C23.87822542 27.69187952 29.9687468 35.30042774 36.140625 42.83203125 C36.85347656 43.70601562 37.56632812 44.58 38.30078125 45.48046875 C39.78589078 47.27553762 41.29541172 49.05059159 42.82421875 50.80859375 C43.56800781 51.68257812 44.31179688 52.5565625 45.078125 53.45703125 C45.75101562 54.22789062 46.42390625 54.99875 47.1171875 55.79296875 C48.453125 58.08203125 48.453125 58.08203125 48.2265625 60.80859375 C47.453125 63.08203125 47.453125 63.08203125 46.453125 64.08203125 C39.193125 64.08203125 31.933125 64.08203125 24.453125 64.08203125 C24.453125 87.18203125 24.453125 110.28203125 24.453125 134.08203125 C39.303125 134.08203125 54.153125 134.08203125 69.453125 134.08203125 C70.773125 137.71203125 72.093125 141.34203125 73.453125 145.08203125 C80.23807403 160.84646773 93.40932884 172.36452826 108.453125 180.08203125 C108.453125 180.74203125 108.453125 181.40203125 108.453125 182.08203125 C94.90102404 182.15160282 81.34896572 182.20487904 67.79672241 182.23746777 C61.5035775 182.25311028 55.21055496 182.27432305 48.91748047 182.30834961 C42.84205933 182.34099301 36.76675575 182.35889491 30.69125366 182.36666298 C28.37566274 182.3721975 26.06007811 182.38300507 23.74453735 182.39922142 C20.4962178 182.42106145 17.2483814 182.42399537 14 182.42260742 C13.04693466 182.43339325 12.09386932 182.44417908 11.11192322 182.45529175 C1.29079126 182.41001167 -7.23170511 179.02914457 -14.46484375 172.296875 C-22.47720522 163.70366004 -24.71131295 154.87489435 -24.66040039 143.34448242 C-24.66054642 142.47568451 -24.66069244 141.6068866 -24.6608429 140.71176147 C-24.66014806 137.84948196 -24.65237573 134.9872681 -24.64453125 132.125 C-24.64266555 130.13674454 -24.64124236 128.14848863 -24.64024353 126.16023254 C-24.63643034 120.93403854 -24.62661028 115.70787245 -24.61553955 110.48168945 C-24.60529967 105.14599993 -24.60074039 99.81030589 -24.59570312 94.47460938 C-24.58498694 84.01040245 -24.56739983 73.54622354 -24.546875 63.08203125 C-32.466875 63.08203125 -40.386875 63.08203125 -48.546875 63.08203125 C-49.546875 59.08203125 -49.546875 59.08203125 -48.68920898 57.3371582 C-48.22844971 56.75409912 -47.76769043 56.17104004 -47.29296875 55.5703125 C-46.77557129 54.90410889 -46.25817383 54.23790527 -45.72509766 53.55151367 C-45.15065918 52.83970947 -44.5762207 52.12790527 -43.984375 51.39453125 C-43.39446777 50.64341064 -42.80456055 49.89229004 -42.19677734 49.1184082 C-37.54534962 43.22950663 -32.75150707 37.45700831 -27.94140625 31.69750977 C-22.58322614 25.23718177 -17.5644413 18.54017284 -12.60791016 11.76831055 C-4.03196552 0.12986392 -4.03196552 0.12986392 0 0 Z " fill="#303D93" transform="translate(375.546875,501.91796875)"/>
<path d="M0 0 C3.97738955 3.18191164 6.41625019 5.57937635 9.4375 9.5 C14.50230947 16.13980994 14.50230947 16.13980994 21.93359375 19.328125 C26.66748106 19.57868992 30.04236778 18.72087215 34 16 C36.83522128 13.13619786 39.42475022 10.09746743 42 7 C43.98235218 4.64943553 45.97849872 2.31733073 48 0 C48.33 0 48.66 0 49 0 C49.06974993 9.73641578 49.12293758 19.47277135 49.15543652 29.20938683 C49.17104052 33.73131561 49.19218167 38.25307247 49.22631836 42.77490234 C49.25910082 47.14508359 49.27689254 51.51510026 49.28463173 55.88539505 C49.29014154 57.54622612 49.30090021 59.20704898 49.31719017 60.8678093 C49.44985715 74.96377338 48.00702955 85.75303674 38.51171875 96.71875 C26.81763073 108.09364455 10.7949968 106.6658237 -4.23828125 106.48828125 C-6.57381936 106.47894037 -8.90936736 106.4718303 -11.24491882 106.46684265 C-17.35244428 106.44787341 -23.45936261 106.39885993 -29.56665039 106.34332275 C-35.81453238 106.29191201 -42.06251373 106.26928219 -48.31054688 106.24414062 C-60.54062938 106.19073104 -72.77026394 106.10554141 -85 106 C-85 105.34 -85 104.68 -85 104 C-84.20078125 103.62230469 -83.4015625 103.24460937 -82.578125 102.85546875 C-64.96741504 94.02944392 -53.29432063 80.39986069 -46 62 C-45.67 60.68 -45.34 59.36 -45 58 C-30.15 58 -15.3 58 0 58 C0 38.86 0 19.72 0 0 Z " fill="#2FC5CC" transform="translate(624,578)"/>
<path d="M0 0 C9.9 0 19.8 0 30 0 C28.75557871 3.11105323 27.50636154 6.14507975 26.125 9.1875 C24.67254864 12.43130803 23.30576447 15.69446239 22 19 C19.85962189 24.41439523 17.60478443 29.79043115 15 35 C21.93 35 28.86 35 36 35 C34.96315605 39.14737579 33.64222904 41.28804486 31.23828125 44.77734375 C30.85552536 45.33688751 30.47276947 45.89643127 30.07841492 46.47293091 C28.82840958 48.29815535 27.57050958 50.11778546 26.3125 51.9375 C25.01377624 53.82891239 23.7170728 55.72169767 22.42062378 57.6146698 C21.54734091 58.88969459 20.67341647 60.16428018 19.79885864 61.43843079 C15.20865194 68.13327672 10.72790513 74.90003634 6.27856445 81.68920898 C5.75351318 82.48399658 5.22846191 83.27878418 4.6875 84.09765625 C4.23761719 84.78351807 3.78773438 85.46937988 3.32421875 86.17602539 C2.01701565 87.9765627 0.61637145 89.47576409 -1 91 C0.48262022 83.55894445 1.9774144 76.12048605 3.5 68.6875 C3.71269531 67.62982422 3.92539062 66.57214844 4.14453125 65.48242188 C4.35464844 64.46083984 4.56476563 63.43925781 4.78125 62.38671875 C4.96751953 61.47108154 5.15378906 60.55544434 5.34570312 59.61206055 C6 57 6 57 8 52 C1.4 52 -5.2 52 -12 52 C-11.37503163 46.37528464 -10.80047464 41.57220788 -9.4765625 36.19921875 C-9.1775 34.97396484 -8.8784375 33.74871094 -8.5703125 32.48632812 C-8.25835937 31.23271484 -7.94640625 29.97910156 -7.625 28.6875 C-7.16867187 26.82448242 -7.16867187 26.82448242 -6.703125 24.92382812 C-5.80907964 21.28078433 -4.90472738 17.64040306 -4 14 C-3.71608398 12.83807129 -3.43216797 11.67614258 -3.13964844 10.47900391 C-2.87442383 9.39925293 -2.60919922 8.31950195 -2.3359375 7.20703125 C-2.10181152 6.24901611 -1.86768555 5.29100098 -1.62646484 4.30395508 C-1 2 -1 2 0 0 Z " fill="#FAC525" transform="translate(502,411)"/>
<path d="M0 0 C0.66 0.33 1.32 0.66 2 1 C2 21.46 2 41.92 2 63 C1.01 62.34 0.02 61.68 -1 61 C-0.9285376 60.27216309 -0.8570752 59.54432617 -0.78344727 58.79443359 C0.24642719 46.74355329 0.11078945 34.71011703 0.0625 22.625 C0.05747376 20.42448019 0.05291285 18.22395926 0.04882812 16.0234375 C0.03791436 10.68226697 0.0212658 5.34113883 0 0 Z " fill="#2C3F8F" transform="translate(397,439)"/>
<path d="M0 0 C-1.21709908 0.48772636 -1.21709908 0.48772636 -2.45878601 0.98530579 C-5.38697395 2.84891515 -5.38697395 2.84891515 -5.63923645 6.62565613 C-5.67150617 8.16181572 -5.67612773 9.69869972 -5.65942383 11.23510742 C-5.66990753 12.07435257 -5.68039124 12.91359772 -5.69119263 13.77827454 C-5.72001169 16.55437887 -5.71364329 19.32924122 -5.70703125 22.10546875 C-5.72014217 24.02933826 -5.73544452 25.953194 -5.75285339 27.87702942 C-5.79278729 32.942202 -5.80289923 38.00701521 -5.80688477 43.07232666 C-5.81620042 48.24038656 -5.85360406 53.4082339 -5.88867188 58.57617188 C-5.95333312 68.71743791 -5.98650318 78.85854587 -6 89 C-6.33 89 -6.66 89 -7 89 C-7 59.63 -7 30.26 -7 0 C-3.86650268 -1.04449911 -3.01031744 -0.93423645 0 0 Z " fill="#D1F2F1" transform="translate(530,669)"/>
<path d="M0 0 C-6.941085 2.90617391 -12.45709983 4.4946164 -20 4 C-16.76538003 1.84358669 -14.32927039 1.18899027 -10.5625 0.3125 C-9.42941406 0.04050781 -8.29632813 -0.23148437 -7.12890625 -0.51171875 C-4.25083111 -0.96085657 -2.68974913 -0.98469931 0 0 Z " fill="#4BCFD8" transform="translate(462,262)"/>
<path d="M0 0 C0.66 0 1.32 0 2 0 C1.45156876 3.83901868 -0.2765265 5.36163505 -3 8 C-3.33 8.99 -3.66 9.98 -4 11 C-4.66 11 -5.32 11 -6 11 C-5.55491959 5.95575532 -3.39019075 3.55556591 0 0 Z " fill="#354795" transform="translate(332,553)"/>
<path d="M0 0 C0.66 0.99 1.32 1.98 2 3 C1.02683363 6.53878682 -0.37866417 8.51586907 -3 11 C-2.69217504 9.35328588 -2.37860766 7.70764424 -2.0625 6.0625 C-1.88847656 5.14597656 -1.71445312 4.22945313 -1.53515625 3.28515625 C-1 1 -1 1 0 0 Z " fill="#FABA37" transform="translate(504,491)"/>
<path d="M0 0 C0 0.66 0 1.32 0 2 C-1.3921875 2.433125 -1.3921875 2.433125 -2.8125 2.875 C-6.09791667 3.8875 -6.09791667 3.8875 -9 6 C-9 3 -9 3 -7.875 1.3125 C-5.23540902 -0.53521368 -3.14195927 -0.20946395 0 0 Z " fill="#36C6D8" transform="translate(483,506)"/>
<path d="M0 0 C0.66 0 1.32 0 2 0 C1.43628586 3.26954202 0.50037734 4.82575883 -2 7 C-2.99 6.67 -3.98 6.34 -5 6 C-3.38405168 3.95880212 -1.7143618 1.95927063 0 0 Z " fill="#3DCBD1" transform="translate(708,661)"/>
<path d="M0 0 C0.33 0 0.66 0 1 0 C1.33 2.97 1.66 5.94 2 9 C1.01 9 0.02 9 -1 9 C-0.67 6.03 -0.34 3.06 0 0 Z " fill="#48CCD1" transform="translate(761,454)"/>
<path d="M0 0 C0.99 0.33 1.98 0.66 3 1 C0.03 3.475 0.03 3.475 -3 6 C-2.625 3.5625 -2.625 3.5625 -2 1 C-1.34 0.67 -0.68 0.34 0 0 Z " fill="#2E4191" transform="translate(332,423)"/>
<path d="M0 0 C2 3 2 3 1.625 5.6875 C1.41875 6.450625 1.2125 7.21375 1 8 C0.01 8 -0.98 8 -2 8 C-1.47731534 5.23723823 -0.89130413 2.6739124 0 0 Z " fill="#3BCCD4" transform="translate(274,416)"/>
</svg>
